<?xml version="1.0" encoding="utf-8"?>
<!-- Generator: Adobe Illustrator 17.0.0, SVG Export Plug-In . SVG Version: 6.00 Build 0)  -->
<!DOCTYPE svg PUBLIC "-//W3C//DTD SVG 1.1//EN" "http://www.w3.org/Graphics/SVG/1.1/DTD/svg11.dtd">
<svg version="1.1" xmlns="http://www.w3.org/2000/svg" xmlns:xlink="http://www.w3.org/1999/xlink" x="0px" y="0px"
	 width="44.583px" height="44.583px" viewBox="0 0 44.583 44.583" enable-background="new 0 0 44.583 44.583" xml:space="preserve">
<g id="Layer_1" display="none">
	
		<image display="inline" overflow="visible" width="50" height="50" xlink:href="Info-50.png"  transform="matrix(1 0 0 1 -3.7083 -2.7633)">
	</image>
</g>
<g id="Layer_2">
	<path fill="#542D2D" d="M22.292,1.625c-11.414,0-20.667,9.253-20.667,20.667s9.253,20.667,20.667,20.667
		s20.667-9.253,20.667-20.667S33.706,1.625,22.292,1.625z M25.537,34.293c0,0-1.942,0.927-4.506,0.927s-4.765-1.738-4.649-4.52
		c0.116-2.781,2.318-8.46,2.318-8.46s1.507-2.202-3.245-1.275l-0.579-0.695c0,0,2.434-2.202,5.215-2.086
		c2.781,0.116,4.751,1.159,4.288,4.636s-1.97,5.794-2.086,8.923s3.245,1.159,3.245,1.159V34.293z M23.451,15.635
		c-1.792,0-3.245-1.453-3.245-3.245s1.453-3.245,3.245-3.245c1.792,0,3.245,1.453,3.245,3.245S25.243,15.635,23.451,15.635z"/>
</g>
</svg>
