<?xml version="1.0" encoding="utf-8"?>
<!-- Generator: Adobe Illustrator 17.0.0, SVG Export Plug-In . SVG Version: 6.00 Build 0)  -->
<!DOCTYPE svg PUBLIC "-//W3C//DTD SVG 1.1//EN" "http://www.w3.org/Graphics/SVG/1.1/DTD/svg11.dtd">
<svg version="1.1" id="Layer_1" xmlns="http://www.w3.org/2000/svg" xmlns:xlink="http://www.w3.org/1999/xlink" x="0px" y="0px"
	 width="494.975px" height="137.993px" viewBox="0 0 494.975 137.993" enable-background="new 0 0 494.975 137.993"
	 xml:space="preserve">
<g id="Layer_2">
	<g>
		
			<rect x="216.188" y="68.836" fill="none" stroke="#FFFFFF" stroke-width="2" stroke-miterlimit="10" width="5.673" height="5.673"/>
		
			<rect x="216.188" y="63.156" fill="none" stroke="#FFFFFF" stroke-width="2" stroke-miterlimit="10" width="5.673" height="5.68"/>
		
			<rect x="216.188" y="57.483" fill="none" stroke="#FFFFFF" stroke-width="2" stroke-miterlimit="10" width="5.673" height="5.673"/>
		<rect x="210.507" y="91.535" fill="none" stroke="#FFFFFF" stroke-width="2" stroke-miterlimit="10" width="5.68" height="5.68"/>
		
			<rect x="210.507" y="68.836" fill="none" stroke="#FFFFFF" stroke-width="2" stroke-miterlimit="10" width="5.68" height="5.673"/>
		<rect x="210.507" y="63.156" fill="none" stroke="#FFFFFF" stroke-width="2" stroke-miterlimit="10" width="5.68" height="5.68"/>
		
			<rect x="210.507" y="57.483" fill="none" stroke="#FFFFFF" stroke-width="2" stroke-miterlimit="10" width="5.68" height="5.673"/>
		
			<rect x="210.507" y="51.811" fill="none" stroke="#FFFFFF" stroke-width="2" stroke-miterlimit="10" width="5.68" height="5.673"/>
		
			<rect x="204.835" y="97.215" fill="none" stroke="#FFFFFF" stroke-width="2" stroke-miterlimit="10" width="5.673" height="5.673"/>
		
			<rect x="204.835" y="91.535" fill="none" stroke="#FFFFFF" stroke-width="2" stroke-miterlimit="10" width="5.673" height="5.68"/>
		
			<rect x="204.835" y="68.836" fill="none" stroke="#FFFFFF" stroke-width="2" stroke-miterlimit="10" width="5.673" height="5.673"/>
		<rect x="204.835" y="46.13" fill="none" stroke="#FFFFFF" stroke-width="2" stroke-miterlimit="10" width="5.673" height="5.68"/>
		
			<rect x="199.154" y="97.215" fill="none" stroke="#FFFFFF" stroke-width="2" stroke-miterlimit="10" width="5.68" height="5.673"/>
		<rect x="199.154" y="91.535" fill="none" stroke="#FFFFFF" stroke-width="2" stroke-miterlimit="10" width="5.68" height="5.68"/>
		
			<rect x="199.154" y="68.836" fill="none" stroke="#FFFFFF" stroke-width="2" stroke-miterlimit="10" width="5.68" height="5.673"/>
		<rect x="199.154" y="46.13" fill="none" stroke="#FFFFFF" stroke-width="2" stroke-miterlimit="10" width="5.68" height="5.68"/>
		
			<rect x="199.154" y="40.458" fill="none" stroke="#FFFFFF" stroke-width="2" stroke-miterlimit="10" width="5.68" height="5.673"/>
		
			<rect x="193.482" y="97.215" fill="none" stroke="#FFFFFF" stroke-width="2" stroke-miterlimit="10" width="5.673" height="5.673"/>
		
			<rect x="193.482" y="91.535" fill="none" stroke="#FFFFFF" stroke-width="2" stroke-miterlimit="10" width="5.673" height="5.68"/>
		
			<rect x="193.482" y="68.836" fill="none" stroke="#FFFFFF" stroke-width="2" stroke-miterlimit="10" width="5.673" height="5.673"/>
		<rect x="193.482" y="46.13" fill="none" stroke="#FFFFFF" stroke-width="2" stroke-miterlimit="10" width="5.673" height="5.68"/>
		
			<rect x="193.482" y="40.458" fill="none" stroke="#FFFFFF" stroke-width="2" stroke-miterlimit="10" width="5.673" height="5.673"/>
		
			<rect x="187.801" y="97.215" fill="none" stroke="#FFFFFF" stroke-width="2" stroke-miterlimit="10" width="5.68" height="5.673"/>
		<rect x="187.801" y="91.535" fill="none" stroke="#FFFFFF" stroke-width="2" stroke-miterlimit="10" width="5.68" height="5.68"/>
		
			<rect x="187.801" y="68.836" fill="none" stroke="#FFFFFF" stroke-width="2" stroke-miterlimit="10" width="5.68" height="5.673"/>
		<rect x="187.801" y="46.13" fill="none" stroke="#FFFFFF" stroke-width="2" stroke-miterlimit="10" width="5.68" height="5.68"/>
		
			<rect x="187.801" y="40.458" fill="none" stroke="#FFFFFF" stroke-width="2" stroke-miterlimit="10" width="5.68" height="5.673"/>
		
			<rect x="182.129" y="97.215" fill="none" stroke="#FFFFFF" stroke-width="2" stroke-miterlimit="10" width="5.673" height="5.673"/>
		
			<rect x="182.129" y="91.535" fill="none" stroke="#FFFFFF" stroke-width="2" stroke-miterlimit="10" width="5.673" height="5.68"/>
		
			<rect x="182.129" y="68.836" fill="none" stroke="#FFFFFF" stroke-width="2" stroke-miterlimit="10" width="5.673" height="5.673"/>
		<rect x="182.129" y="46.13" fill="none" stroke="#FFFFFF" stroke-width="2" stroke-miterlimit="10" width="5.673" height="5.68"/>
		
			<rect x="182.129" y="40.458" fill="none" stroke="#FFFFFF" stroke-width="2" stroke-miterlimit="10" width="5.673" height="5.673"/>
		
			<rect x="176.456" y="91.535" fill="none" stroke="#FFFFFF" stroke-width="2" stroke-miterlimit="10" width="5.673" height="5.68"/>
		
			<rect x="176.456" y="85.862" fill="none" stroke="#FFFFFF" stroke-width="2" stroke-miterlimit="10" width="5.673" height="5.673"/>
		
			<rect x="176.456" y="68.836" fill="none" stroke="#FFFFFF" stroke-width="2" stroke-miterlimit="10" width="5.673" height="5.673"/>
		
			<rect x="176.456" y="51.811" fill="none" stroke="#FFFFFF" stroke-width="2" stroke-miterlimit="10" width="5.673" height="5.673"/>
		
			<rect x="204.835" y="51.811" fill="none" stroke="#FFFFFF" stroke-width="2" stroke-miterlimit="10" width="5.673" height="5.673"/>
		<rect x="176.456" y="46.13" fill="none" stroke="#FFFFFF" stroke-width="2" stroke-miterlimit="10" width="5.673" height="5.68"/>
		
			<rect x="170.775" y="85.862" fill="none" stroke="#FFFFFF" stroke-width="2" stroke-miterlimit="10" width="5.68" height="5.673"/>
		<rect x="170.775" y="80.182" fill="none" stroke="#FFFFFF" stroke-width="2" stroke-miterlimit="10" width="5.68" height="5.68"/>
		<rect x="165.099" y="80.182" fill="none" stroke="#FFFFFF" stroke-width="2" stroke-miterlimit="10" width="5.68" height="5.68"/>
		
			<rect x="170.775" y="74.509" fill="none" stroke="#FFFFFF" stroke-width="2" stroke-miterlimit="10" width="5.68" height="5.673"/>
		
			<rect x="170.775" y="68.836" fill="none" stroke="#FFFFFF" stroke-width="2" stroke-miterlimit="10" width="5.68" height="5.673"/>
		<rect x="170.775" y="63.156" fill="none" stroke="#FFFFFF" stroke-width="2" stroke-miterlimit="10" width="5.68" height="5.68"/>
		
			<rect x="170.775" y="57.483" fill="none" stroke="#FFFFFF" stroke-width="2" stroke-miterlimit="10" width="5.68" height="5.673"/>
		
			<rect x="170.775" y="51.811" fill="none" stroke="#FFFFFF" stroke-width="2" stroke-miterlimit="10" width="5.68" height="5.673"/>
		
			<rect x="165.103" y="74.509" fill="none" stroke="#FFFFFF" stroke-width="2" stroke-miterlimit="10" width="5.673" height="5.673"/>
		
			<rect x="165.103" y="68.836" fill="none" stroke="#FFFFFF" stroke-width="2" stroke-miterlimit="10" width="5.673" height="5.673"/>
		
			<rect x="165.103" y="63.156" fill="none" stroke="#FFFFFF" stroke-width="2" stroke-miterlimit="10" width="5.673" height="5.68"/>
		
			<rect x="165.103" y="57.479" fill="none" stroke="#FFFFFF" stroke-width="2" stroke-miterlimit="10" width="5.673" height="5.68"/>
		
			<rect x="159.097" y="97.217" fill="none" stroke="#FFFFFF" stroke-width="2" stroke-miterlimit="10" width="5.68" height="5.673"/>
		<rect x="153.422" y="46.13" fill="none" stroke="#FFFFFF" stroke-width="2" stroke-miterlimit="10" width="5.68" height="5.673"/>
		
			<rect x="153.424" y="97.217" fill="none" stroke="#FFFFFF" stroke-width="2" stroke-miterlimit="10" width="5.673" height="5.673"/>
		
			<rect x="153.421" y="91.539" fill="none" stroke="#FFFFFF" stroke-width="2" stroke-miterlimit="10" width="5.68" height="5.673"/>
		
			<rect x="147.748" y="91.539" fill="none" stroke="#FFFFFF" stroke-width="2" stroke-miterlimit="10" width="5.673" height="5.673"/>
		<rect x="147.75" y="85.862" fill="none" stroke="#FFFFFF" stroke-width="2" stroke-miterlimit="10" width="5.673" height="5.68"/>
		<rect x="147.75" y="51.803" fill="none" stroke="#FFFFFF" stroke-width="2" stroke-miterlimit="10" width="5.673" height="5.68"/>
		<rect x="147.75" y="46.13" fill="none" stroke="#FFFFFF" stroke-width="2" stroke-miterlimit="10" width="5.673" height="5.673"/>
		
			<rect x="159.093" y="40.458" fill="none" stroke="#FFFFFF" stroke-width="2" stroke-miterlimit="10" width="5.68" height="5.673"/>
		
			<rect x="153.42" y="40.458" fill="none" stroke="#FFFFFF" stroke-width="2" stroke-miterlimit="10" width="5.673" height="5.673"/>
		<rect x="142.069" y="85.862" fill="none" stroke="#FFFFFF" stroke-width="2" stroke-miterlimit="10" width="5.68" height="5.68"/>
		<rect x="142.069" y="80.19" fill="none" stroke="#FFFFFF" stroke-width="2" stroke-miterlimit="10" width="5.68" height="5.673"/>
		
			<rect x="142.069" y="57.483" fill="none" stroke="#FFFFFF" stroke-width="2" stroke-miterlimit="10" width="5.68" height="5.673"/>
		<rect x="142.069" y="51.803" fill="none" stroke="#FFFFFF" stroke-width="2" stroke-miterlimit="10" width="5.68" height="5.68"/>
		
			<rect x="136.397" y="80.19" fill="none" stroke="#FFFFFF" stroke-width="2" stroke-miterlimit="10" width="5.673" height="5.673"/>
		
			<rect x="136.397" y="74.509" fill="none" stroke="#FFFFFF" stroke-width="2" stroke-miterlimit="10" width="5.673" height="5.68"/>
		
			<rect x="136.397" y="63.156" fill="none" stroke="#FFFFFF" stroke-width="2" stroke-miterlimit="10" width="5.673" height="5.673"/>
		
			<rect x="136.397" y="57.483" fill="none" stroke="#FFFFFF" stroke-width="2" stroke-miterlimit="10" width="5.673" height="5.673"/>
		
			<rect x="130.724" y="74.509" fill="none" stroke="#FFFFFF" stroke-width="2" stroke-miterlimit="10" width="5.673" height="5.673"/>
		
			<rect x="130.724" y="68.836" fill="none" stroke="#FFFFFF" stroke-width="2" stroke-miterlimit="10" width="5.673" height="5.673"/>
		
			<rect x="130.724" y="63.156" fill="none" stroke="#FFFFFF" stroke-width="2" stroke-miterlimit="10" width="5.673" height="5.68"/>
		
			<rect x="125.044" y="74.509" fill="none" stroke="#FFFFFF" stroke-width="2" stroke-miterlimit="10" width="5.68" height="5.673"/>
		
			<rect x="125.044" y="68.836" fill="none" stroke="#FFFFFF" stroke-width="2" stroke-miterlimit="10" width="5.68" height="5.673"/>
		<rect x="125.044" y="63.156" fill="none" stroke="#FFFFFF" stroke-width="2" stroke-miterlimit="10" width="5.68" height="5.68"/>
		<rect x="119.367" y="63.156" fill="none" stroke="#FFFFFF" stroke-width="2" stroke-miterlimit="10" width="5.68" height="5.68"/>
		
			<rect x="113.694" y="80.186" fill="none" stroke="#FFFFFF" stroke-width="2" stroke-miterlimit="10" width="5.673" height="5.673"/>
		
			<rect x="119.371" y="80.182" fill="none" stroke="#FFFFFF" stroke-width="2" stroke-miterlimit="10" width="5.673" height="5.68"/>
		
			<rect x="119.371" y="74.505" fill="none" stroke="#FFFFFF" stroke-width="2" stroke-miterlimit="10" width="5.673" height="5.68"/>
		
			<rect x="119.371" y="57.483" fill="none" stroke="#FFFFFF" stroke-width="2" stroke-miterlimit="10" width="5.673" height="5.673"/>
		
			<rect x="113.694" y="57.483" fill="none" stroke="#FFFFFF" stroke-width="2" stroke-miterlimit="10" width="5.673" height="5.673"/>
		<rect x="108.014" y="85.858" fill="none" stroke="#FFFFFF" stroke-width="2" stroke-miterlimit="10" width="5.68" height="5.68"/>
		<rect x="113.69" y="85.862" fill="none" stroke="#FFFFFF" stroke-width="2" stroke-miterlimit="10" width="5.68" height="5.673"/>
		<rect x="113.69" y="51.811" fill="none" stroke="#FFFFFF" stroke-width="2" stroke-miterlimit="10" width="5.68" height="5.673"/>
		
			<rect x="108.014" y="51.807" fill="none" stroke="#FFFFFF" stroke-width="2" stroke-miterlimit="10" width="5.68" height="5.673"/>
		
			<rect x="102.341" y="91.539" fill="none" stroke="#FFFFFF" stroke-width="2" stroke-miterlimit="10" width="5.673" height="5.673"/>
		
			<rect x="108.018" y="91.535" fill="none" stroke="#FFFFFF" stroke-width="2" stroke-miterlimit="10" width="5.673" height="5.68"/>
		<rect x="108.018" y="46.13" fill="none" stroke="#FFFFFF" stroke-width="2" stroke-miterlimit="10" width="5.673" height="5.68"/>
		<rect x="102.341" y="46.13" fill="none" stroke="#FFFFFF" stroke-width="2" stroke-miterlimit="10" width="5.673" height="5.68"/>
		
			<rect x="102.337" y="97.215" fill="none" stroke="#FFFFFF" stroke-width="2" stroke-miterlimit="10" width="5.68" height="5.673"/>
		<rect x="96.657" y="97.215" fill="none" stroke="#FFFFFF" stroke-width="2" stroke-miterlimit="10" width="5.68" height="5.673"/>
		
			<rect x="102.337" y="40.458" fill="none" stroke="#FFFFFF" stroke-width="2" stroke-miterlimit="10" width="5.68" height="5.673"/>
		<rect x="96.657" y="40.458" fill="none" stroke="#FFFFFF" stroke-width="2" stroke-miterlimit="10" width="5.68" height="5.673"/>
		<rect x="83.73" y="97.215" fill="none" stroke="#FFFFFF" stroke-width="2" stroke-miterlimit="10" width="5.68" height="5.673"/>
		<rect x="83.73" y="91.535" fill="none" stroke="#FFFFFF" stroke-width="2" stroke-miterlimit="10" width="5.68" height="5.68"/>
		<rect x="83.73" y="85.862" fill="none" stroke="#FFFFFF" stroke-width="2" stroke-miterlimit="10" width="5.68" height="5.673"/>
		<rect x="83.73" y="80.182" fill="none" stroke="#FFFFFF" stroke-width="2" stroke-miterlimit="10" width="5.68" height="5.68"/>
		<rect x="83.73" y="74.509" fill="none" stroke="#FFFFFF" stroke-width="2" stroke-miterlimit="10" width="5.68" height="5.673"/>
		<rect x="83.73" y="68.836" fill="none" stroke="#FFFFFF" stroke-width="2" stroke-miterlimit="10" width="5.68" height="5.673"/>
		<rect x="83.73" y="63.156" fill="none" stroke="#FFFFFF" stroke-width="2" stroke-miterlimit="10" width="5.68" height="5.68"/>
		<rect x="83.73" y="57.483" fill="none" stroke="#FFFFFF" stroke-width="2" stroke-miterlimit="10" width="5.68" height="5.673"/>
		<rect x="83.73" y="51.811" fill="none" stroke="#FFFFFF" stroke-width="2" stroke-miterlimit="10" width="5.68" height="5.673"/>
		<rect x="83.73" y="46.13" fill="none" stroke="#FFFFFF" stroke-width="2" stroke-miterlimit="10" width="5.68" height="5.68"/>
		<rect x="83.73" y="40.458" fill="none" stroke="#FFFFFF" stroke-width="2" stroke-miterlimit="10" width="5.68" height="5.673"/>
		<rect x="83.73" y="23.407" fill="none" stroke="#FFFFFF" stroke-width="2" stroke-miterlimit="10" width="5.68" height="5.673"/>
		<rect x="83.73" y="17.734" fill="none" stroke="#FFFFFF" stroke-width="2" stroke-miterlimit="10" width="5.68" height="5.673"/>
		
			<rect x="78.057" y="97.215" fill="none" stroke="#FFFFFF" stroke-width="2" stroke-miterlimit="10" width="5.673" height="5.673"/>
		<rect x="78.057" y="91.535" fill="none" stroke="#FFFFFF" stroke-width="2" stroke-miterlimit="10" width="5.673" height="5.68"/>
		
			<rect x="78.057" y="85.862" fill="none" stroke="#FFFFFF" stroke-width="2" stroke-miterlimit="10" width="5.673" height="5.673"/>
		<rect x="78.057" y="80.182" fill="none" stroke="#FFFFFF" stroke-width="2" stroke-miterlimit="10" width="5.673" height="5.68"/>
		
			<rect x="78.057" y="74.509" fill="none" stroke="#FFFFFF" stroke-width="2" stroke-miterlimit="10" width="5.673" height="5.673"/>
		
			<rect x="78.057" y="68.836" fill="none" stroke="#FFFFFF" stroke-width="2" stroke-miterlimit="10" width="5.673" height="5.673"/>
		<rect x="78.057" y="63.156" fill="none" stroke="#FFFFFF" stroke-width="2" stroke-miterlimit="10" width="5.673" height="5.68"/>
		
			<rect x="78.057" y="57.483" fill="none" stroke="#FFFFFF" stroke-width="2" stroke-miterlimit="10" width="5.673" height="5.673"/>
		
			<rect x="78.057" y="51.811" fill="none" stroke="#FFFFFF" stroke-width="2" stroke-miterlimit="10" width="5.673" height="5.673"/>
		<rect x="78.057" y="46.13" fill="none" stroke="#FFFFFF" stroke-width="2" stroke-miterlimit="10" width="5.673" height="5.68"/>
		
			<rect x="78.057" y="40.458" fill="none" stroke="#FFFFFF" stroke-width="2" stroke-miterlimit="10" width="5.673" height="5.673"/>
		
			<rect x="234.886" y="97.215" fill="none" stroke="#FFFFFF" stroke-width="2" stroke-miterlimit="10" width="5.68" height="5.673"/>
		<rect x="234.886" y="91.535" fill="none" stroke="#FFFFFF" stroke-width="2" stroke-miterlimit="10" width="5.68" height="5.68"/>
		
			<rect x="234.886" y="85.862" fill="none" stroke="#FFFFFF" stroke-width="2" stroke-miterlimit="10" width="5.68" height="5.673"/>
		<rect x="234.886" y="80.182" fill="none" stroke="#FFFFFF" stroke-width="2" stroke-miterlimit="10" width="5.68" height="5.68"/>
		
			<rect x="234.886" y="74.509" fill="none" stroke="#FFFFFF" stroke-width="2" stroke-miterlimit="10" width="5.68" height="5.673"/>
		
			<rect x="234.886" y="68.836" fill="none" stroke="#FFFFFF" stroke-width="2" stroke-miterlimit="10" width="5.68" height="5.673"/>
		<rect x="234.886" y="63.156" fill="none" stroke="#FFFFFF" stroke-width="2" stroke-miterlimit="10" width="5.68" height="5.68"/>
		
			<rect x="234.886" y="57.483" fill="none" stroke="#FFFFFF" stroke-width="2" stroke-miterlimit="10" width="5.68" height="5.673"/>
		
			<rect x="234.886" y="51.811" fill="none" stroke="#FFFFFF" stroke-width="2" stroke-miterlimit="10" width="5.68" height="5.673"/>
		<rect x="234.886" y="46.13" fill="none" stroke="#FFFFFF" stroke-width="2" stroke-miterlimit="10" width="5.68" height="5.68"/>
		
			<rect x="234.886" y="40.458" fill="none" stroke="#FFFFFF" stroke-width="2" stroke-miterlimit="10" width="5.68" height="5.673"/>
		
			<rect x="229.213" y="97.215" fill="none" stroke="#FFFFFF" stroke-width="2" stroke-miterlimit="10" width="5.673" height="5.673"/>
		
			<rect x="229.213" y="91.535" fill="none" stroke="#FFFFFF" stroke-width="2" stroke-miterlimit="10" width="5.673" height="5.68"/>
		
			<rect x="229.213" y="85.862" fill="none" stroke="#FFFFFF" stroke-width="2" stroke-miterlimit="10" width="5.673" height="5.673"/>
		
			<rect x="229.213" y="80.182" fill="none" stroke="#FFFFFF" stroke-width="2" stroke-miterlimit="10" width="5.673" height="5.68"/>
		
			<rect x="229.213" y="74.509" fill="none" stroke="#FFFFFF" stroke-width="2" stroke-miterlimit="10" width="5.673" height="5.673"/>
		
			<rect x="229.213" y="68.836" fill="none" stroke="#FFFFFF" stroke-width="2" stroke-miterlimit="10" width="5.673" height="5.673"/>
		
			<rect x="229.213" y="63.156" fill="none" stroke="#FFFFFF" stroke-width="2" stroke-miterlimit="10" width="5.673" height="5.68"/>
		
			<rect x="229.213" y="57.483" fill="none" stroke="#FFFFFF" stroke-width="2" stroke-miterlimit="10" width="5.673" height="5.673"/>
		
			<rect x="229.213" y="51.811" fill="none" stroke="#FFFFFF" stroke-width="2" stroke-miterlimit="10" width="5.673" height="5.673"/>
		<rect x="229.213" y="46.13" fill="none" stroke="#FFFFFF" stroke-width="2" stroke-miterlimit="10" width="5.673" height="5.68"/>
		
			<rect x="229.213" y="40.458" fill="none" stroke="#FFFFFF" stroke-width="2" stroke-miterlimit="10" width="5.673" height="5.673"/>
		
			<rect x="234.886" y="34.769" fill="none" stroke="#FFFFFF" stroke-width="2" stroke-miterlimit="10" width="5.68" height="5.673"/>
		
			<rect x="234.886" y="29.096" fill="none" stroke="#FFFFFF" stroke-width="2" stroke-miterlimit="10" width="5.68" height="5.673"/>
		<rect x="234.886" y="23.416" fill="none" stroke="#FFFFFF" stroke-width="2" stroke-miterlimit="10" width="5.68" height="5.68"/>
		
			<rect x="234.886" y="17.743" fill="none" stroke="#FFFFFF" stroke-width="2" stroke-miterlimit="10" width="5.68" height="5.673"/>
		
			<rect x="229.213" y="34.769" fill="none" stroke="#FFFFFF" stroke-width="2" stroke-miterlimit="10" width="5.673" height="5.673"/>
		
			<rect x="229.213" y="29.096" fill="none" stroke="#FFFFFF" stroke-width="2" stroke-miterlimit="10" width="5.673" height="5.673"/>
		
			<rect x="229.213" y="23.416" fill="none" stroke="#FFFFFF" stroke-width="2" stroke-miterlimit="10" width="5.673" height="5.68"/>
		
			<rect x="229.213" y="17.743" fill="none" stroke="#FFFFFF" stroke-width="2" stroke-miterlimit="10" width="5.673" height="5.673"/>
		
			<rect x="78.057" y="23.407" fill="none" stroke="#FFFFFF" stroke-width="2" stroke-miterlimit="10" width="5.673" height="5.673"/>
		
			<rect x="78.057" y="17.734" fill="none" stroke="#FFFFFF" stroke-width="2" stroke-miterlimit="10" width="5.673" height="5.673"/>
		<rect x="62.733" y="85.723" fill="none" stroke="#FFFFFF" stroke-width="2" stroke-miterlimit="10" width="5.68" height="5.673"/>
		<rect x="62.733" y="80.042" fill="none" stroke="#FFFFFF" stroke-width="2" stroke-miterlimit="10" width="5.68" height="5.68"/>
		<rect x="62.733" y="74.37" fill="none" stroke="#FFFFFF" stroke-width="2" stroke-miterlimit="10" width="5.68" height="5.673"/>
		<rect x="62.733" y="68.697" fill="none" stroke="#FFFFFF" stroke-width="2" stroke-miterlimit="10" width="5.68" height="5.673"/>
		<rect x="62.733" y="63.017" fill="none" stroke="#FFFFFF" stroke-width="2" stroke-miterlimit="10" width="5.68" height="5.68"/>
		<rect x="62.733" y="57.344" fill="none" stroke="#FFFFFF" stroke-width="2" stroke-miterlimit="10" width="5.68" height="5.673"/>
		<rect x="62.733" y="51.671" fill="none" stroke="#FFFFFF" stroke-width="2" stroke-miterlimit="10" width="5.68" height="5.673"/>
		<rect x="57.06" y="91.395" fill="none" stroke="#FFFFFF" stroke-width="2" stroke-miterlimit="10" width="5.673" height="5.68"/>
		<rect x="57.06" y="85.723" fill="none" stroke="#FFFFFF" stroke-width="2" stroke-miterlimit="10" width="5.673" height="5.673"/>
		<rect x="57.06" y="80.042" fill="none" stroke="#FFFFFF" stroke-width="2" stroke-miterlimit="10" width="5.673" height="5.68"/>
		<rect x="57.06" y="74.37" fill="none" stroke="#FFFFFF" stroke-width="2" stroke-miterlimit="10" width="5.673" height="5.673"/>
		<rect x="57.06" y="68.697" fill="none" stroke="#FFFFFF" stroke-width="2" stroke-miterlimit="10" width="5.673" height="5.673"/>
		<rect x="57.06" y="63.017" fill="none" stroke="#FFFFFF" stroke-width="2" stroke-miterlimit="10" width="5.673" height="5.68"/>
		<rect x="57.06" y="57.344" fill="none" stroke="#FFFFFF" stroke-width="2" stroke-miterlimit="10" width="5.673" height="5.673"/>
		<rect x="57.06" y="51.671" fill="none" stroke="#FFFFFF" stroke-width="2" stroke-miterlimit="10" width="5.673" height="5.673"/>
		<rect x="57.06" y="45.991" fill="none" stroke="#FFFFFF" stroke-width="2" stroke-miterlimit="10" width="5.673" height="5.68"/>
		
			<rect x="51.388" y="97.076" fill="none" stroke="#FFFFFF" stroke-width="2" stroke-miterlimit="10" width="5.673" height="5.673"/>
		<rect x="51.388" y="91.395" fill="none" stroke="#FFFFFF" stroke-width="2" stroke-miterlimit="10" width="5.673" height="5.68"/>
		
			<rect x="51.388" y="85.723" fill="none" stroke="#FFFFFF" stroke-width="2" stroke-miterlimit="10" width="5.673" height="5.673"/>
		
			<rect x="51.388" y="51.671" fill="none" stroke="#FFFFFF" stroke-width="2" stroke-miterlimit="10" width="5.673" height="5.673"/>
		<rect x="51.388" y="45.991" fill="none" stroke="#FFFFFF" stroke-width="2" stroke-miterlimit="10" width="5.673" height="5.68"/>
		
			<rect x="51.388" y="40.318" fill="none" stroke="#FFFFFF" stroke-width="2" stroke-miterlimit="10" width="5.673" height="5.673"/>
		<rect x="45.707" y="97.076" fill="none" stroke="#FFFFFF" stroke-width="2" stroke-miterlimit="10" width="5.68" height="5.673"/>
		<rect x="45.707" y="91.395" fill="none" stroke="#FFFFFF" stroke-width="2" stroke-miterlimit="10" width="5.68" height="5.68"/>
		<rect x="45.707" y="45.991" fill="none" stroke="#FFFFFF" stroke-width="2" stroke-miterlimit="10" width="5.68" height="5.68"/>
		<rect x="45.707" y="40.318" fill="none" stroke="#FFFFFF" stroke-width="2" stroke-miterlimit="10" width="5.68" height="5.673"/>
		
			<rect x="40.035" y="97.076" fill="none" stroke="#FFFFFF" stroke-width="2" stroke-miterlimit="10" width="5.673" height="5.673"/>
		<rect x="40.035" y="91.395" fill="none" stroke="#FFFFFF" stroke-width="2" stroke-miterlimit="10" width="5.673" height="5.68"/>
		
			<rect x="40.035" y="40.318" fill="none" stroke="#FFFFFF" stroke-width="2" stroke-miterlimit="10" width="5.673" height="5.673"/>
		<rect x="34.354" y="97.076" fill="none" stroke="#FFFFFF" stroke-width="2" stroke-miterlimit="10" width="5.68" height="5.673"/>
		<rect x="34.354" y="91.395" fill="none" stroke="#FFFFFF" stroke-width="2" stroke-miterlimit="10" width="5.68" height="5.68"/>
		<rect x="34.354" y="40.318" fill="none" stroke="#FFFFFF" stroke-width="2" stroke-miterlimit="10" width="5.68" height="5.673"/>
		
			<rect x="28.681" y="97.076" fill="none" stroke="#FFFFFF" stroke-width="2" stroke-miterlimit="10" width="5.673" height="5.673"/>
		<rect x="28.681" y="91.395" fill="none" stroke="#FFFFFF" stroke-width="2" stroke-miterlimit="10" width="5.673" height="5.68"/>
		<rect x="28.681" y="45.991" fill="none" stroke="#FFFFFF" stroke-width="2" stroke-miterlimit="10" width="5.673" height="5.68"/>
		<rect x="34.358" y="45.991" fill="none" stroke="#FFFFFF" stroke-width="2" stroke-miterlimit="10" width="5.673" height="5.68"/>
		<rect x="40.035" y="45.991" fill="none" stroke="#FFFFFF" stroke-width="2" stroke-miterlimit="10" width="5.673" height="5.68"/>
		
			<rect x="28.681" y="40.318" fill="none" stroke="#FFFFFF" stroke-width="2" stroke-miterlimit="10" width="5.673" height="5.673"/>
		<rect x="23.001" y="91.395" fill="none" stroke="#FFFFFF" stroke-width="2" stroke-miterlimit="10" width="5.68" height="5.68"/>
		<rect x="23.001" y="51.671" fill="none" stroke="#FFFFFF" stroke-width="2" stroke-miterlimit="10" width="5.68" height="5.673"/>
		<rect x="23.001" y="45.991" fill="none" stroke="#FFFFFF" stroke-width="2" stroke-miterlimit="10" width="5.68" height="5.68"/>
		
			<rect x="17.328" y="119.774" fill="none" stroke="#FFFFFF" stroke-width="2" stroke-miterlimit="10" width="5.673" height="5.68"/>
		
			<rect x="17.328" y="114.102" fill="none" stroke="#FFFFFF" stroke-width="2" stroke-miterlimit="10" width="5.673" height="5.673"/>
		
			<rect x="17.328" y="108.421" fill="none" stroke="#FFFFFF" stroke-width="2" stroke-miterlimit="10" width="5.673" height="5.68"/>
		
			<rect x="17.328" y="102.749" fill="none" stroke="#FFFFFF" stroke-width="2" stroke-miterlimit="10" width="5.673" height="5.673"/>
		
			<rect x="17.328" y="97.076" fill="none" stroke="#FFFFFF" stroke-width="2" stroke-miterlimit="10" width="5.673" height="5.673"/>
		<rect x="17.328" y="91.395" fill="none" stroke="#FFFFFF" stroke-width="2" stroke-miterlimit="10" width="5.673" height="5.68"/>
		
			<rect x="17.328" y="85.723" fill="none" stroke="#FFFFFF" stroke-width="2" stroke-miterlimit="10" width="5.673" height="5.673"/>
		
			<rect x="23.005" y="85.723" fill="none" stroke="#FFFFFF" stroke-width="2" stroke-miterlimit="10" width="5.673" height="5.673"/>
		<rect x="17.328" y="80.042" fill="none" stroke="#FFFFFF" stroke-width="2" stroke-miterlimit="10" width="5.673" height="5.68"/>
		<rect x="17.328" y="74.37" fill="none" stroke="#FFFFFF" stroke-width="2" stroke-miterlimit="10" width="5.673" height="5.673"/>
		
			<rect x="17.328" y="68.697" fill="none" stroke="#FFFFFF" stroke-width="2" stroke-miterlimit="10" width="5.673" height="5.673"/>
		<rect x="17.328" y="63.017" fill="none" stroke="#FFFFFF" stroke-width="2" stroke-miterlimit="10" width="5.673" height="5.68"/>
		
			<rect x="17.328" y="57.344" fill="none" stroke="#FFFFFF" stroke-width="2" stroke-miterlimit="10" width="5.673" height="5.673"/>
		
			<rect x="17.328" y="51.671" fill="none" stroke="#FFFFFF" stroke-width="2" stroke-miterlimit="10" width="5.673" height="5.673"/>
		<rect x="17.328" y="45.991" fill="none" stroke="#FFFFFF" stroke-width="2" stroke-miterlimit="10" width="5.673" height="5.68"/>
		
			<rect x="17.328" y="40.318" fill="none" stroke="#FFFFFF" stroke-width="2" stroke-miterlimit="10" width="5.673" height="5.673"/>
		
			<rect x="11.656" y="119.774" fill="none" stroke="#FFFFFF" stroke-width="2" stroke-miterlimit="10" width="5.673" height="5.68"/>
		
			<rect x="11.656" y="114.102" fill="none" stroke="#FFFFFF" stroke-width="2" stroke-miterlimit="10" width="5.673" height="5.673"/>
		
			<rect x="11.656" y="108.421" fill="none" stroke="#FFFFFF" stroke-width="2" stroke-miterlimit="10" width="5.673" height="5.68"/>
		
			<rect x="11.656" y="102.749" fill="none" stroke="#FFFFFF" stroke-width="2" stroke-miterlimit="10" width="5.673" height="5.673"/>
		
			<rect x="11.656" y="97.076" fill="none" stroke="#FFFFFF" stroke-width="2" stroke-miterlimit="10" width="5.673" height="5.673"/>
		<rect x="11.656" y="91.395" fill="none" stroke="#FFFFFF" stroke-width="2" stroke-miterlimit="10" width="5.673" height="5.68"/>
		
			<rect x="11.656" y="85.723" fill="none" stroke="#FFFFFF" stroke-width="2" stroke-miterlimit="10" width="5.673" height="5.673"/>
		<rect x="11.656" y="80.042" fill="none" stroke="#FFFFFF" stroke-width="2" stroke-miterlimit="10" width="5.673" height="5.68"/>
		<rect x="11.656" y="74.37" fill="none" stroke="#FFFFFF" stroke-width="2" stroke-miterlimit="10" width="5.673" height="5.673"/>
		
			<rect x="11.656" y="68.697" fill="none" stroke="#FFFFFF" stroke-width="2" stroke-miterlimit="10" width="5.673" height="5.673"/>
		<rect x="11.656" y="63.017" fill="none" stroke="#FFFFFF" stroke-width="2" stroke-miterlimit="10" width="5.673" height="5.68"/>
		
			<rect x="11.656" y="57.344" fill="none" stroke="#FFFFFF" stroke-width="2" stroke-miterlimit="10" width="5.673" height="5.673"/>
		
			<rect x="11.656" y="51.671" fill="none" stroke="#FFFFFF" stroke-width="2" stroke-miterlimit="10" width="5.673" height="5.673"/>
		<rect x="11.656" y="45.991" fill="none" stroke="#FFFFFF" stroke-width="2" stroke-miterlimit="10" width="5.673" height="5.68"/>
		
			<rect x="11.656" y="40.318" fill="none" stroke="#FFFFFF" stroke-width="2" stroke-miterlimit="10" width="5.673" height="5.673"/>
	</g>
	<g>
		<path fill="#FFFFFF" d="M250.859,94.111l3.043-2.79c3.805,5.073,10.399,9.131,19.403,9.131c11.286,0,18.135-6.087,18.135-14.203
			c0-18.769-39.313-9.004-39.313-30.436c0-9.004,7.609-16.232,20.798-16.232c10.526,0,17.12,4.185,21.052,9.258l-2.79,2.536
			c-3.551-5.073-10.019-8.37-18.262-8.37c-10.652,0-16.993,5.58-16.993,12.808c0,17.12,39.313,7.229,39.313,30.436
			c0,9.511-7.103,17.627-21.939,17.627C263.667,103.876,256.945,101.086,250.859,94.111z"/>
		<path fill="#FFFFFF" d="M313.52,91.575V44.526h-10.146v-3.424h10.146v-16.74h3.805v16.74h12.428v3.424h-12.428v47.049
			c0,5.199,2.029,8.877,6.595,8.877c3.043,0,5.706-1.521,7.229-3.297l2.282,2.917c-2.409,2.283-4.946,3.805-9.511,3.805
			C316.817,103.876,313.52,99.184,313.52,91.575z"/>
		<path fill="#FFFFFF" d="M336.944,71.665c0-17.754,12.301-32.084,28.787-32.084c18.769,0,28.406,15.091,28.406,32.084v1.268
			h-52.882c0.38,14.964,10.146,27.519,25.743,27.519c8.624,0,15.599-3.17,21.306-9.257l2.282,2.409
			c-6.214,6.468-13.315,10.272-23.588,10.272C349.245,103.876,336.944,90.307,336.944,71.665z M365.605,43.005
			c-15.726,0-23.969,14.457-24.349,26.504h48.824C390.08,57.715,382.344,43.005,365.605,43.005z"/>
		<path fill="#FFFFFF" d="M461.7,103.452l-19.179-57.536l-19.178,57.536h-3.153l-21.017-63.447h4.335l18.391,57.273l19.047-57.273
			h3.153l19.047,57.273l18.391-57.273h4.335l-21.017,63.447C464.855,103.452,461.7,103.452,461.7,103.452z"/>
	</g>
</g>
</svg>
